<svg width="468" height="272" viewBox="0 0 468 272" fill="none" xmlns="http://www.w3.org/2000/svg">
<path d="M130.835 10.7012C133.641 10.7012 135.915 8.42697 135.915 5.62159C135.915 2.81621 133.641 0.541992 130.835 0.541992C128.03 0.541992 125.756 2.81621 125.756 5.62159C125.756 8.42697 128.03 10.7012 130.835 10.7012Z" fill="#E2E3E4"/>
<path d="M156.548 10.7012C159.354 10.7012 161.628 8.42697 161.628 5.62159C161.628 2.81621 159.354 0.541992 156.548 0.541992C153.743 0.541992 151.469 2.81621 151.469 5.62159C151.469 8.42697 153.743 10.7012 156.548 10.7012Z" fill="#E2E3E4"/>
<path d="M182.261 10.7012C185.067 10.7012 187.341 8.42697 187.341 5.62159C187.341 2.81621 185.067 0.541992 182.261 0.541992C179.456 0.541992 177.182 2.81621 177.182 5.62159C177.182 8.42697 179.456 10.7012 182.261 10.7012Z" fill="#E2E3E4"/>
<path d="M207.974 10.7012C210.779 10.7012 213.054 8.42697 213.054 5.62159C213.054 2.81621 210.779 0.541992 207.974 0.541992C205.169 0.541992 202.895 2.81621 202.895 5.62159C202.895 8.42697 205.169 10.7012 207.974 10.7012Z" fill="#E2E3E4"/>
<path d="M233.687 10.7012C236.492 10.7012 238.767 8.42697 238.767 5.62159C238.767 2.81621 236.492 0.541992 233.687 0.541992C230.882 0.541992 228.607 2.81621 228.607 5.62159C228.607 8.42697 230.882 10.7012 233.687 10.7012Z" fill="#E2E3E4"/>
<path d="M130.835 36.7368C133.641 36.7368 135.915 34.4626 135.915 31.6572C135.915 28.8518 133.641 26.5776 130.835 26.5776C128.03 26.5776 125.756 28.8518 125.756 31.6572C125.756 34.4626 128.03 36.7368 130.835 36.7368Z" fill="#E2E3E4"/>
<path d="M156.548 36.7368C159.354 36.7368 161.628 34.4626 161.628 31.6572C161.628 28.8518 159.354 26.5776 156.548 26.5776C153.743 26.5776 151.469 28.8518 151.469 31.6572C151.469 34.4626 153.743 36.7368 156.548 36.7368Z" fill="#E2E3E4"/>
<path d="M182.261 36.7368C185.067 36.7368 187.341 34.4626 187.341 31.6572C187.341 28.8518 185.067 26.5776 182.261 26.5776C179.456 26.5776 177.182 28.8518 177.182 31.6572C177.182 34.4626 179.456 36.7368 182.261 36.7368Z" fill="#E2E3E4"/>
<path d="M207.974 36.7368C210.779 36.7368 213.054 34.4626 213.054 31.6572C213.054 28.8518 210.779 26.5776 207.974 26.5776C205.169 26.5776 202.895 28.8518 202.895 31.6572C202.895 34.4626 205.169 36.7368 207.974 36.7368Z" fill="#3C7240"/>
<path d="M233.687 36.7368C236.492 36.7368 238.767 34.4626 238.767 31.6572C238.767 28.8518 236.492 26.5776 233.687 26.5776C230.882 26.5776 228.607 28.8518 228.607 31.6572C228.607 34.4626 230.882 36.7368 233.687 36.7368Z" fill="#E2E3E4"/>
<path d="M285.113 36.7368C287.918 36.7368 290.192 34.4626 290.192 31.6572C290.192 28.8518 287.918 26.5776 285.113 26.5776C282.307 26.5776 280.033 28.8518 280.033 31.6572C280.033 34.4626 282.307 36.7368 285.113 36.7368Z" fill="#E2E3E4"/>
<path d="M130.835 62.7725C133.641 62.7725 135.915 60.4983 135.915 57.6929C135.915 54.8875 133.641 52.6133 130.835 52.6133C128.03 52.6133 125.756 54.8875 125.756 57.6929C125.756 60.4983 128.03 62.7725 130.835 62.7725Z" fill="#E2E3E4"/>
<path d="M156.548 62.7725C159.354 62.7725 161.628 60.4983 161.628 57.6929C161.628 54.8875 159.354 52.6133 156.548 52.6133C153.743 52.6133 151.469 54.8875 151.469 57.6929C151.469 60.4983 153.743 62.7725 156.548 62.7725Z" fill="#E2E3E4"/>
<path d="M182.261 62.7725C185.067 62.7725 187.341 60.4983 187.341 57.6929C187.341 54.8875 185.067 52.6133 182.261 52.6133C179.456 52.6133 177.182 54.8875 177.182 57.6929C177.182 60.4983 179.456 62.7725 182.261 62.7725Z" fill="#E2E3E4"/>
<path d="M207.974 62.7725C210.779 62.7725 213.054 60.4983 213.054 57.6929C213.054 54.8875 210.779 52.6133 207.974 52.6133C205.169 52.6133 202.895 54.8875 202.895 57.6929C202.895 60.4983 205.169 62.7725 207.974 62.7725Z" fill="#E2E3E4"/>
<path d="M233.687 62.7725C236.492 62.7725 238.767 60.4983 238.767 57.6929C238.767 54.8875 236.492 52.6133 233.687 52.6133C230.882 52.6133 228.607 54.8875 228.607 57.6929C228.607 60.4983 230.882 62.7725 233.687 62.7725Z" fill="#E2E3E4"/>
<path d="M130.835 88.8076C133.641 88.8076 135.915 86.5334 135.915 83.728C135.915 80.9227 133.641 78.6484 130.835 78.6484C128.03 78.6484 125.756 80.9227 125.756 83.728C125.756 86.5334 128.03 88.8076 130.835 88.8076Z" fill="#E2E3E4"/>
<path d="M156.548 88.8076C159.354 88.8076 161.628 86.5334 161.628 83.728C161.628 80.9227 159.354 78.6484 156.548 78.6484C153.743 78.6484 151.469 80.9227 151.469 83.728C151.469 86.5334 153.743 88.8076 156.548 88.8076Z" fill="#E2E3E4"/>
<path d="M182.261 88.8076C185.067 88.8076 187.341 86.5334 187.341 83.728C187.341 80.9227 185.067 78.6484 182.261 78.6484C179.456 78.6484 177.182 80.9227 177.182 83.728C177.182 86.5334 179.456 88.8076 182.261 88.8076Z" fill="#E2E3E4"/>
<path d="M207.974 88.8076C210.779 88.8076 213.054 86.5334 213.054 83.728C213.054 80.9227 210.779 78.6484 207.974 78.6484C205.169 78.6484 202.895 80.9227 202.895 83.728C202.895 86.5334 205.169 88.8076 207.974 88.8076Z" fill="#E2E3E4"/>
<path d="M233.687 88.8076C236.492 88.8076 238.767 86.5334 238.767 83.728C238.767 80.9227 236.492 78.6484 233.687 78.6484C230.882 78.6484 228.607 80.9227 228.607 83.728C228.607 86.5334 230.882 88.8076 233.687 88.8076Z" fill="#E2E3E4"/>
<path d="M259.4 88.8076C262.205 88.8076 264.48 86.5334 264.48 83.728C264.48 80.9227 262.205 78.6484 259.4 78.6484C256.595 78.6484 254.32 80.9227 254.32 83.728C254.32 86.5334 256.595 88.8076 259.4 88.8076Z" fill="#E2E3E4"/>
<path d="M285.113 88.8076C287.918 88.8076 290.192 86.5334 290.192 83.728C290.192 80.9227 287.918 78.6484 285.113 78.6484C282.307 78.6484 280.033 80.9227 280.033 83.728C280.033 86.5334 282.307 88.8076 285.113 88.8076Z" fill="#E2E3E4"/>
<path d="M310.826 88.8076C313.631 88.8076 315.905 86.5334 315.905 83.728C315.905 80.9227 313.631 78.6484 310.826 78.6484C308.02 78.6484 305.746 80.9227 305.746 83.728C305.746 86.5334 308.02 88.8076 310.826 88.8076Z" fill="#E2E3E4"/>
<path d="M336.539 88.8076C339.344 88.8076 341.618 86.5334 341.618 83.728C341.618 80.9227 339.344 78.6484 336.539 78.6484C333.733 78.6484 331.459 80.9227 331.459 83.728C331.459 86.5334 333.733 88.8076 336.539 88.8076Z" fill="#E2E3E4"/>
<path d="M362.251 88.8076C365.057 88.8076 367.331 86.5334 367.331 83.728C367.331 80.9227 365.057 78.6484 362.251 78.6484C359.446 78.6484 357.172 80.9227 357.172 83.728C357.172 86.5334 359.446 88.8076 362.251 88.8076Z" fill="#E2E3E4"/>
<path d="M233.687 114.844C236.492 114.844 238.767 112.57 238.767 109.764C238.767 106.959 236.492 104.685 233.687 104.685C230.882 104.685 228.607 106.959 228.607 109.764C228.607 112.57 230.882 114.844 233.687 114.844Z" fill="#E2E3E4"/>
<path d="M259.4 114.844C262.205 114.844 264.48 112.57 264.48 109.764C264.48 106.959 262.205 104.685 259.4 104.685C256.595 104.685 254.32 106.959 254.32 109.764C254.32 112.57 256.595 114.844 259.4 114.844Z" fill="#3C7240"/>
<path d="M285.113 114.844C287.918 114.844 290.192 112.57 290.192 109.764C290.192 106.959 287.918 104.685 285.113 104.685C282.307 104.685 280.033 106.959 280.033 109.764C280.033 112.57 282.307 114.844 285.113 114.844Z" fill="#E2E3E4"/>
<path d="M310.826 114.844C313.631 114.844 315.905 112.57 315.905 109.764C315.905 106.959 313.631 104.685 310.826 104.685C308.02 104.685 305.746 106.959 305.746 109.764C305.746 112.57 308.02 114.844 310.826 114.844Z" fill="#E2E3E4"/>
<path d="M336.539 114.844C339.344 114.844 341.618 112.57 341.618 109.764C341.618 106.959 339.344 104.685 336.539 104.685C333.733 104.685 331.459 106.959 331.459 109.764C331.459 112.57 333.733 114.844 336.539 114.844Z" fill="#E2E3E4"/>
<path d="M362.251 114.844C365.057 114.844 367.331 112.57 367.331 109.764C367.331 106.959 365.057 104.685 362.251 104.685C359.446 104.685 357.172 106.959 357.172 109.764C357.172 112.57 359.446 114.844 362.251 114.844Z" fill="#E2E3E4"/>
<path d="M233.687 140.879C236.492 140.879 238.767 138.605 238.767 135.8C238.767 132.994 236.492 130.72 233.687 130.72C230.882 130.72 228.607 132.994 228.607 135.8C228.607 138.605 230.882 140.879 233.687 140.879Z" fill="#E2E3E4"/>
<path d="M259.4 140.879C262.205 140.879 264.48 138.605 264.48 135.8C264.48 132.994 262.205 130.72 259.4 130.72C256.595 130.72 254.32 132.994 254.32 135.8C254.32 138.605 256.595 140.879 259.4 140.879Z" fill="#E2E3E4"/>
<path d="M285.113 140.879C287.918 140.879 290.192 138.605 290.192 135.8C290.192 132.994 287.918 130.72 285.113 130.72C282.307 130.72 280.033 132.994 280.033 135.8C280.033 138.605 282.307 140.879 285.113 140.879Z" fill="#E2E3E4"/>
<path d="M310.826 140.879C313.631 140.879 315.905 138.605 315.905 135.8C315.905 132.994 313.631 130.72 310.826 130.72C308.02 130.72 305.746 132.994 305.746 135.8C305.746 138.605 308.02 140.879 310.826 140.879Z" fill="#E2E3E4"/>
<path d="M336.539 140.879C339.344 140.879 341.618 138.605 341.618 135.8C341.618 132.994 339.344 130.72 336.539 130.72C333.733 130.72 331.459 132.994 331.459 135.8C331.459 138.605 333.733 140.879 336.539 140.879Z" fill="#3C7240"/>
<path d="M362.251 140.879C365.057 140.879 367.331 138.605 367.331 135.8C367.331 132.994 365.057 130.72 362.251 130.72C359.446 130.72 357.172 132.994 357.172 135.8C357.172 138.605 359.446 140.879 362.251 140.879Z" fill="#E2E3E4"/>
<path d="M233.687 166.915C236.492 166.915 238.767 164.641 238.767 161.835C238.767 159.03 236.492 156.756 233.687 156.756C230.882 156.756 228.607 159.03 228.607 161.835C228.607 164.641 230.882 166.915 233.687 166.915Z" fill="#E2E3E4"/>
<path d="M259.4 166.915C262.205 166.915 264.48 164.641 264.48 161.835C264.48 159.03 262.205 156.756 259.4 156.756C256.595 156.756 254.32 159.03 254.32 161.835C254.32 164.641 256.595 166.915 259.4 166.915Z" fill="#E2E3E4"/>
<path d="M285.113 166.915C287.918 166.915 290.192 164.641 290.192 161.835C290.192 159.03 287.918 156.756 285.113 156.756C282.307 156.756 280.033 159.03 280.033 161.835C280.033 164.641 282.307 166.915 285.113 166.915Z" fill="#E2E3E4"/>
<path d="M310.826 166.915C313.631 166.915 315.905 164.641 315.905 161.835C315.905 159.03 313.631 156.756 310.826 156.756C308.02 156.756 305.746 159.03 305.746 161.835C305.746 164.641 308.02 166.915 310.826 166.915Z" fill="#E2E3E4"/>
<path d="M336.539 166.915C339.344 166.915 341.618 164.641 341.618 161.835C341.618 159.03 339.344 156.756 336.539 156.756C333.733 156.756 331.459 159.03 331.459 161.835C331.459 164.641 333.733 166.915 336.539 166.915Z" fill="#E2E3E4"/>
<path d="M362.251 166.915C365.057 166.915 367.331 164.641 367.331 161.835C367.331 159.03 365.057 156.756 362.251 156.756C359.446 156.756 357.172 159.03 357.172 161.835C357.172 164.641 359.446 166.915 362.251 166.915Z" fill="#E2E3E4"/>
<path d="M130.835 192.95C133.641 192.95 135.915 190.676 135.915 187.871C135.915 185.065 133.641 182.791 130.835 182.791C128.03 182.791 125.756 185.065 125.756 187.871C125.756 190.676 128.03 192.95 130.835 192.95Z" fill="#E2E3E4"/>
<path d="M156.548 192.95C159.354 192.95 161.628 190.676 161.628 187.871C161.628 185.065 159.354 182.791 156.548 182.791C153.743 182.791 151.469 185.065 151.469 187.871C151.469 190.676 153.743 192.95 156.548 192.95Z" fill="#E2E3E4"/>
<path d="M182.261 192.95C185.067 192.95 187.341 190.676 187.341 187.871C187.341 185.065 185.067 182.791 182.261 182.791C179.456 182.791 177.182 185.065 177.182 187.871C177.182 190.676 179.456 192.95 182.261 192.95Z" fill="#E2E3E4"/>
<path d="M207.974 192.95C210.779 192.95 213.054 190.676 213.054 187.871C213.054 185.065 210.779 182.791 207.974 182.791C205.169 182.791 202.895 185.065 202.895 187.871C202.895 190.676 205.169 192.95 207.974 192.95Z" fill="#E2E3E4"/>
<path d="M233.687 192.95C236.492 192.95 238.767 190.676 238.767 187.871C238.767 185.065 236.492 182.791 233.687 182.791C230.882 182.791 228.607 185.065 228.607 187.871C228.607 190.676 230.882 192.95 233.687 192.95Z" fill="#E2E3E4"/>
<path d="M259.4 192.95C262.205 192.95 264.48 190.676 264.48 187.871C264.48 185.065 262.205 182.791 259.4 182.791C256.595 182.791 254.32 185.065 254.32 187.871C254.32 190.676 256.595 192.95 259.4 192.95Z" fill="#E2E3E4"/>
<path d="M285.113 192.95C287.918 192.95 290.192 190.676 290.192 187.871C290.192 185.065 287.918 182.791 285.113 182.791C282.307 182.791 280.033 185.065 280.033 187.871C280.033 190.676 282.307 192.95 285.113 192.95Z" fill="#E2E3E4"/>
<path d="M310.826 192.95C313.631 192.95 315.905 190.676 315.905 187.871C315.905 185.065 313.631 182.791 310.826 182.791C308.02 182.791 305.746 185.065 305.746 187.871C305.746 190.676 308.02 192.95 310.826 192.95Z" fill="#E2E3E4"/>
<path d="M336.539 192.95C339.344 192.95 341.618 190.676 341.618 187.871C341.618 185.065 339.344 182.791 336.539 182.791C333.733 182.791 331.459 185.065 331.459 187.871C331.459 190.676 333.733 192.95 336.539 192.95Z" fill="#E2E3E4"/>
<path d="M362.251 192.95C365.057 192.95 367.331 190.676 367.331 187.871C367.331 185.065 365.057 182.791 362.251 182.791C359.446 182.791 357.172 185.065 357.172 187.871C357.172 190.676 359.446 192.95 362.251 192.95Z" fill="#E2E3E4"/>
<path d="M135.912 213.927C135.924 211.121 133.659 208.838 130.853 208.826C128.048 208.815 125.764 211.08 125.753 213.885C125.742 216.691 128.007 218.974 130.812 218.985C133.617 218.997 135.901 216.732 135.912 213.927Z" fill="#E2E3E4"/>
<path d="M156.548 218.986C159.354 218.986 161.628 216.712 161.628 213.906C161.628 211.101 159.354 208.827 156.548 208.827C153.743 208.827 151.469 211.101 151.469 213.906C151.469 216.712 153.743 218.986 156.548 218.986Z" fill="#E2E3E4"/>
<path d="M135.912 239.962C135.924 237.156 133.659 234.873 130.853 234.862C128.048 234.85 125.764 237.115 125.753 239.92C125.742 242.726 128.007 245.009 130.812 245.021C133.617 245.032 135.901 242.767 135.912 239.962Z" fill="#E2E3E4"/>
<path d="M156.548 245.022C159.354 245.022 161.628 242.747 161.628 239.942C161.628 237.137 159.354 234.862 156.548 234.862C153.743 234.862 151.469 237.137 151.469 239.942C151.469 242.747 153.743 245.022 156.548 245.022Z" fill="#E2E3E4"/>
<path d="M207.974 245.022C210.78 245.022 213.054 242.747 213.054 239.942C213.054 237.137 210.78 234.862 207.974 234.862C205.169 234.862 202.895 237.137 202.895 239.942C202.895 242.747 205.169 245.022 207.974 245.022Z" fill="#E2E3E4"/>
<path d="M464.272 60.4712H262.977C261.988 60.47 261.041 60.0769 260.342 59.3781C259.643 58.6792 259.25 57.7318 259.249 56.7435V6.81069C259.25 5.82241 259.643 4.87492 260.342 4.17609C261.041 3.47727 261.988 3.08417 262.977 3.08301H464.272C465.26 3.08417 466.208 3.47727 466.907 4.17609C467.606 4.87492 467.999 5.82241 468 6.81069V56.7435C467.999 57.7318 467.606 58.6792 466.907 59.3781C466.208 60.0769 465.26 60.47 464.272 60.4712ZM262.977 4.57408C262.384 4.57473 261.815 4.81058 261.396 5.22989C260.977 5.64919 260.741 6.21771 260.74 6.81069V56.7435C260.741 57.3365 260.977 57.905 261.396 58.3243C261.815 58.7436 262.384 58.9794 262.977 58.9801H464.272C464.865 58.9794 465.434 58.7436 465.853 58.3243C466.272 57.905 466.508 57.3365 466.509 56.7435V6.81069C466.508 6.21771 466.272 5.64919 465.853 5.22989C465.434 4.81058 464.865 4.57473 464.272 4.57408H262.977Z" fill="#E2E3E4"/>
<path d="M289.07 47.4332C297.717 47.4332 304.727 40.4236 304.727 31.7769C304.727 23.1302 297.717 16.1206 289.07 16.1206C280.424 16.1206 273.414 23.1302 273.414 31.7769C273.414 40.4236 280.424 47.4332 289.07 47.4332Z" fill="#3C7240"/>
<path d="M325.229 21.3394C324.537 21.3394 323.874 21.6143 323.384 22.1036C322.895 22.593 322.62 23.2567 322.62 23.9487C322.62 24.6408 322.895 25.3045 323.384 25.7939C323.874 26.2832 324.537 26.5581 325.229 26.5581H394.564C395.256 26.5581 395.92 26.2832 396.41 25.7939C396.899 25.3045 397.174 24.6408 397.174 23.9487C397.174 23.2567 396.899 22.593 396.41 22.1036C395.92 21.6143 395.256 21.3394 394.564 21.3394H325.229Z" fill="#E2E3E4"/>
<path d="M325.229 36.9956C324.537 36.9956 323.874 37.2705 323.384 37.7599C322.895 38.2492 322.62 38.9129 322.62 39.605C322.62 40.297 322.895 40.9607 323.384 41.4501C323.874 41.9395 324.537 42.2144 325.229 42.2144H448.243C448.935 42.2144 449.599 41.9395 450.088 41.4501C450.578 40.9607 450.853 40.297 450.853 39.605C450.853 38.9129 450.578 38.2492 450.088 37.7599C449.599 37.2705 448.935 36.9956 448.243 36.9956H325.229Z" fill="#E2E3E4"/>
<path d="M205.571 161.864H4.27554C3.28725 161.863 2.33977 161.47 1.64095 160.771C0.942123 160.072 0.549012 159.125 0.547852 158.137V108.204C0.549012 107.215 0.942123 106.268 1.64095 105.569C2.33977 104.87 3.28725 104.477 4.27554 104.476H205.571C206.559 104.477 207.507 104.87 208.206 105.569C208.904 106.268 209.297 107.215 209.299 108.204V158.137C209.297 159.125 208.904 160.072 208.206 160.771C207.507 161.47 206.559 161.863 205.571 161.864ZM4.27554 105.967C3.68255 105.968 3.11403 106.204 2.69473 106.623C2.27542 107.042 2.03957 107.611 2.03893 108.204V158.137C2.03957 158.73 2.27542 159.298 2.69473 159.717C3.11403 160.137 3.68255 160.373 4.27554 160.373H205.571C206.164 160.373 206.732 160.137 207.152 159.717C207.571 159.298 207.807 158.73 207.808 158.137V108.204C207.807 107.611 207.571 107.042 207.152 106.623C206.732 106.204 206.164 105.968 205.571 105.967H4.27554Z" fill="#3C7240"/>
<path d="M30.3692 148.826C39.0159 148.826 46.0254 141.817 46.0254 133.17C46.0254 124.523 39.0159 117.514 30.3692 117.514C21.7224 117.514 14.7129 124.523 14.7129 133.17C14.7129 141.817 21.7224 148.826 30.3692 148.826Z" fill="#3C7240"/>
<path d="M66.5283 122.732C65.8363 122.732 65.1726 123.007 64.6832 123.497C64.1939 123.986 63.9189 124.65 63.9189 125.342C63.9189 126.034 64.1939 126.698 64.6832 127.187C65.1726 127.676 65.8363 127.951 66.5283 127.951H138.845C139.537 127.951 140.201 127.676 140.691 127.187C141.18 126.698 141.455 126.034 141.455 125.342C141.455 124.65 141.18 123.986 140.691 123.497C140.201 123.007 139.537 122.732 138.845 122.732H66.5283Z" fill="#E2E3E4"/>
<path d="M66.5283 138.389C65.8363 138.389 65.1726 138.664 64.6832 139.153C64.1939 139.642 63.9189 140.306 63.9189 140.998C63.9189 141.69 64.1939 142.354 64.6832 142.843C65.1726 143.333 65.8363 143.607 66.5283 143.607H189.542C190.234 143.607 190.898 143.333 191.387 142.843C191.876 142.354 192.151 141.69 192.151 140.998C192.151 140.306 191.876 139.642 191.387 139.153C190.898 138.664 190.234 138.389 189.542 138.389H66.5283Z" fill="#E2E3E4"/>
<path d="M387.482 271.458H186.187C185.198 271.457 184.251 271.064 183.552 270.365C182.853 269.666 182.46 268.719 182.459 267.73V217.798C182.46 216.809 182.853 215.862 183.552 215.163C184.251 214.464 185.198 214.071 186.187 214.07H387.482C388.47 214.071 389.418 214.464 390.117 215.163C390.815 215.862 391.209 216.809 391.21 217.798V267.73C391.209 268.719 390.815 269.666 390.117 270.365C389.418 271.064 388.47 271.457 387.482 271.458ZM186.187 215.561C185.594 215.562 185.025 215.797 184.606 216.217C184.187 216.636 183.951 217.205 183.95 217.798V267.73C183.951 268.323 184.187 268.892 184.606 269.311C185.025 269.73 185.594 269.966 186.187 269.967H387.482C388.075 269.966 388.644 269.73 389.063 269.311C389.482 268.892 389.718 268.323 389.719 267.73V217.798C389.718 217.205 389.482 216.636 389.063 216.217C388.644 215.797 388.075 215.562 387.482 215.561H186.187Z" fill="#E2E3E4"/>
<path d="M212.28 258.42C220.927 258.42 227.937 251.411 227.937 242.764C227.937 234.117 220.927 227.108 212.28 227.108C203.634 227.108 196.624 234.117 196.624 242.764C196.624 251.411 203.634 258.42 212.28 258.42Z" fill="#3C7240"/>
<path d="M248.438 232.327C247.746 232.327 247.083 232.602 246.593 233.091C246.104 233.58 245.829 234.244 245.829 234.936C245.829 235.628 246.104 236.292 246.593 236.781C247.083 237.27 247.746 237.545 248.438 237.545H314.791C315.483 237.545 316.147 237.27 316.636 236.781C317.126 236.292 317.401 235.628 317.401 234.936C317.401 234.244 317.126 233.58 316.636 233.091C316.147 232.602 315.483 232.327 314.791 232.327H248.438Z" fill="#E2E3E4"/>
<path d="M248.438 247.983C247.746 247.983 247.083 248.258 246.593 248.747C246.104 249.237 245.829 249.9 245.829 250.592C245.829 251.284 246.104 251.948 246.593 252.437C247.083 252.927 247.746 253.202 248.438 253.202H371.452C372.144 253.202 372.808 252.927 373.297 252.437C373.787 251.948 374.061 251.284 374.061 250.592C374.061 249.9 373.787 249.237 373.297 248.747C372.808 248.258 372.144 247.983 371.452 247.983H248.438Z" fill="#E2E3E4"/>
</svg>
