<svg width="115" height="135" viewBox="0 0 115 135" fill="none" xmlns="http://www.w3.org/2000/svg">
<path d="M23.5332 86.1524H3.83718C2.81985 86.1513 1.84451 85.748 1.12515 85.0311C0.405786 84.3142 0.00114526 83.3422 0 82.3284V3.824C0.00114526 2.81016 0.405786 1.83818 1.12515 1.12128C1.84451 0.404393 2.81985 0.00114132 3.83718 0H57.26L67.0379 8.70032V24.5186H66.5864V8.90176L57.0878 0.449882H3.83718C2.93954 0.450894 2.07895 0.806705 1.44422 1.43926C0.809486 2.07181 0.452449 2.92944 0.451433 3.824V82.3284C0.452449 83.223 0.809486 84.0806 1.44422 84.7132C2.07895 85.3457 2.93954 85.7015 3.83718 85.7025H23.5332V86.1524Z" fill="#CCCCCC"/>
<path d="M66.8124 8.99764H60.718C59.7007 8.9965 58.7254 8.59325 58.006 7.87636C57.2866 7.15947 56.882 6.18748 56.8809 5.17365V0.224941C56.8809 0.165283 56.9046 0.108068 56.947 0.0658835C56.9893 0.0236989 57.0467 0 57.1066 0C57.1664 0 57.2238 0.0236989 57.2662 0.0658835C57.3085 0.108068 57.3323 0.165283 57.3323 0.224941V5.17365C57.3333 6.06821 57.6903 6.92584 58.3251 7.55839C58.9598 8.19094 59.8204 8.54675 60.718 8.54776H66.8124C66.8723 8.54776 66.9297 8.57146 66.972 8.61364C67.0143 8.65583 67.0381 8.71304 67.0381 8.7727C67.0381 8.83236 67.0143 8.88958 66.972 8.93176C66.9297 8.97394 66.8723 8.99764 66.8124 8.99764Z" fill="#CCCCCC"/>
<path d="M59.2594 20.3572H7.79597C7.31706 20.3572 6.85776 20.5468 6.51912 20.8842C6.18048 21.2217 5.99023 21.6794 5.99023 22.1567C5.99023 22.634 6.18048 23.0917 6.51912 23.4292C6.85776 23.7666 7.31706 23.9562 7.79597 23.9562H59.2594C59.7383 23.9562 60.1976 23.7666 60.5362 23.4292C60.8749 23.0917 61.0651 22.634 61.0651 22.1567C61.0651 21.6794 60.8749 21.2217 60.5362 20.8842C60.1976 20.5468 59.7383 20.3572 59.2594 20.3572Z" fill="#E6E6E6"/>
<path d="M33.302 12.7092H7.79597C7.31706 12.7092 6.85776 12.8988 6.51912 13.2363C6.18048 13.5738 5.99023 14.0315 5.99023 14.5088C5.99023 14.986 6.18048 15.4437 6.51912 15.7812C6.85776 16.1187 7.31706 16.3083 7.79597 16.3083H33.302C33.7809 16.3083 34.2402 16.1187 34.5788 15.7812C34.9174 15.4437 35.1077 14.986 35.1077 14.5088C35.1077 14.0315 34.9174 13.5738 34.5788 13.2363C34.2402 12.8988 33.7809 12.7092 33.302 12.7092Z" fill="#E6E6E6"/>
<path d="M7.79597 35.4285C7.31706 35.4285 6.85776 35.6181 6.51912 35.9555C6.18048 36.293 5.99023 36.7507 5.99023 37.228C5.99023 37.7053 6.18048 38.163 6.51912 38.5005C6.85776 38.8379 7.31706 39.0275 7.79597 39.0275H23.9257V35.4285H7.79597Z" fill="#E6E6E6"/>
<path d="M7.79597 27.7803C7.55884 27.7803 7.32403 27.8268 7.10494 27.9173C6.88586 28.0077 6.6868 28.1402 6.51912 28.3073C6.35144 28.4744 6.21843 28.6728 6.12769 28.8911C6.03694 29.1095 5.99023 29.3435 5.99023 29.5798C5.99023 29.8161 6.03694 30.0501 6.12769 30.2684C6.21843 30.4868 6.35144 30.6852 6.51912 30.8523C6.6868 31.0194 6.88586 31.1519 7.10494 31.2423C7.32403 31.3328 7.55884 31.3793 7.79597 31.3793H23.9257V27.7803H7.79597Z" fill="#E6E6E6"/>
<path d="M24.0386 73.5559H9.5837C8.59629 73.5548 7.64964 73.1634 6.95144 72.4676C6.25323 71.7718 5.86049 70.8284 5.85938 69.8444V50.9493C5.86049 49.9653 6.25324 49.0219 6.95144 48.3261C7.64964 47.6303 8.59629 47.2389 9.5837 47.2378H24.0386V73.5559Z" fill="#E6E6E6"/>
<path d="M47.3457 110.334H27.6497C26.6324 110.332 25.657 109.929 24.9376 109.212C24.2183 108.495 23.8136 107.523 23.8125 106.51V28.0051C23.8136 26.9913 24.2183 26.0193 24.9376 25.3024C25.657 24.5855 26.6324 24.1823 27.6497 24.1812H81.0725L90.8504 32.8815V47.8H90.3989V33.0829L80.9003 24.631H27.6497C26.752 24.632 25.8915 24.9879 25.2567 25.6204C24.622 26.253 24.2649 27.1106 24.2639 28.0051V106.51C24.2649 107.404 24.622 108.262 25.2567 108.894C25.8915 109.527 26.752 109.883 27.6497 109.884H47.3457V110.334Z" fill="#CCCCCC"/>
<path d="M90.6249 33.1788H84.5305C83.5132 33.1776 82.5379 32.7744 81.8185 32.0575C81.0991 31.3406 80.6945 30.3686 80.6934 29.3548V24.4061C80.6934 24.3464 80.7171 24.2892 80.7595 24.247C80.8018 24.2049 80.8592 24.1812 80.9191 24.1812C80.9789 24.1812 81.0364 24.2049 81.0787 24.247C81.121 24.2892 81.1448 24.3464 81.1448 24.4061V29.3548C81.1458 30.2494 81.5028 31.107 82.1376 31.7395C82.7723 32.3721 83.6329 32.7279 84.5305 32.7289H90.6249C90.6848 32.7289 90.7422 32.7526 90.7845 32.7948C90.8268 32.837 90.8506 32.8942 90.8506 32.9538C90.8506 33.0135 90.8268 33.0707 90.7845 33.1129C90.7422 33.1551 90.6848 33.1788 90.6249 33.1788Z" fill="#CCCCCC"/>
<path d="M83.0728 44.5383H31.6094C31.1305 44.5383 30.6712 44.7279 30.3326 45.0654C29.994 45.4029 29.8037 45.8606 29.8037 46.3379C29.8037 46.8151 29.994 47.2728 30.3326 47.6103C30.6712 47.9478 31.1305 48.1374 31.6094 48.1374H83.0728C83.5518 48.1374 84.011 47.9478 84.3497 47.6103C84.6883 47.2728 84.8786 46.8151 84.8786 46.3379C84.8786 45.8606 84.6883 45.4029 84.3497 45.0654C84.011 44.7279 83.5518 44.5383 83.0728 44.5383Z" fill="#E6E6E6"/>
<path d="M57.1154 36.8904H31.6094C31.1305 36.8904 30.6712 37.08 30.3326 37.4175C29.994 37.7549 29.8037 38.2126 29.8037 38.6899C29.8037 39.1672 29.994 39.6249 30.3326 39.9624C30.6712 40.2998 31.1305 40.4894 31.6094 40.4894H57.1154C57.5943 40.4894 58.0536 40.2998 58.3923 39.9624C58.7309 39.6249 58.9212 39.1672 58.9212 38.6899C58.9212 38.2126 58.7309 37.7549 58.3923 37.4175C58.0536 37.08 57.5943 36.8904 57.1154 36.8904Z" fill="#E6E6E6"/>
<path d="M83.0728 44.5383H31.6094C31.1305 44.5383 30.6712 44.7279 30.3326 45.0654C29.994 45.4029 29.8037 45.8606 29.8037 46.3379C29.8037 46.8151 29.994 47.2728 30.3326 47.6103C30.6712 47.9478 31.1305 48.1374 31.6094 48.1374H83.0728C83.5518 48.1374 84.011 47.9478 84.3497 47.6103C84.6883 47.2728 84.8786 46.8151 84.8786 46.3379C84.8786 45.8606 84.6883 45.4029 84.3497 45.0654C84.011 44.7279 83.5518 44.5383 83.0728 44.5383Z" fill="#E6E6E6"/>
<path d="M57.1154 36.8904H31.6094C31.1305 36.8904 30.6712 37.08 30.3326 37.4175C29.994 37.7549 29.8037 38.2126 29.8037 38.6899C29.8037 39.1672 29.994 39.6249 30.3326 39.9624C30.6712 40.2998 31.1305 40.4894 31.6094 40.4894H57.1154C57.5943 40.4894 58.0536 40.2998 58.3923 39.9624C58.7309 39.6249 58.9212 39.1672 58.9212 38.6899C58.9212 38.2126 58.7309 37.7549 58.3923 37.4175C58.0536 37.08 57.5943 36.8904 57.1154 36.8904Z" fill="#E6E6E6"/>
<path d="M31.6094 59.6094C31.1305 59.6094 30.6712 59.799 30.3326 60.1365C29.994 60.4739 29.8037 60.9316 29.8037 61.4089C29.8037 61.8862 29.994 62.3439 30.3326 62.6814C30.6712 63.0188 31.1305 63.2084 31.6094 63.2084H47.7392V59.6094H31.6094Z" fill="#E6E6E6"/>
<path d="M31.6094 51.9614C31.1305 51.9614 30.6712 52.151 30.3326 52.4885C29.994 52.826 29.8037 53.2837 29.8037 53.761C29.8037 54.2382 29.994 54.6959 30.3326 55.0334C30.6712 55.3709 31.1305 55.5605 31.6094 55.5605H47.7392V51.9614H31.6094Z" fill="#E6E6E6"/>
<path d="M31.6094 59.6094C31.1305 59.6094 30.6712 59.799 30.3326 60.1365C29.994 60.4739 29.8037 60.9316 29.8037 61.4089C29.8037 61.8862 29.994 62.3439 30.3326 62.6814C30.6712 63.0188 31.1305 63.2084 31.6094 63.2084H47.7392V59.6094H31.6094Z" fill="#E6E6E6"/>
<path d="M31.6094 51.9614C31.1305 51.9614 30.6712 52.151 30.3326 52.4885C29.994 52.826 29.8037 53.2837 29.8037 53.761C29.8037 54.2382 29.994 54.6959 30.3326 55.0334C30.6712 55.3709 31.1305 55.5605 31.6094 55.5605H47.7392V51.9614H31.6094Z" fill="#E6E6E6"/>
<path d="M47.8521 97.7368H33.3972C32.4098 97.7357 31.4631 97.3443 30.7649 96.6485C30.0667 95.9527 29.674 95.0093 29.6729 94.0253V75.1302C29.674 74.1462 30.0667 73.2028 30.7649 72.507C31.4631 71.8112 32.4098 71.4198 33.3972 71.4187H47.8521V97.7368Z" fill="#E6E6E6"/>
<path d="M49.1245 48.5875C48.5635 48.9287 48.0999 49.4079 47.7781 49.9791C47.4564 50.5502 47.2873 51.1942 47.2871 51.8491V52.4115H47.7385V51.8491C47.7395 51.1053 47.9866 50.3825 48.4416 49.7928C48.8966 49.2031 49.5341 48.7794 50.2553 48.5875H49.1245ZM104.547 48.0251H51.1243C50.107 48.0263 49.1317 48.4296 48.4123 49.1465C47.693 49.8634 47.2883 50.8353 47.2871 51.8491V130.354C47.2886 131.367 47.6933 132.339 48.4126 133.056C49.1319 133.773 50.1071 134.176 51.1243 134.178H110.488C111.505 134.176 112.48 133.773 113.199 133.056C113.919 132.339 114.324 131.367 114.325 130.354V56.7259L104.547 48.0251ZM113.874 130.354C113.872 131.248 113.515 132.106 112.881 132.738C112.246 133.371 111.385 133.727 110.488 133.728H51.1243C50.2267 133.727 49.3661 133.371 48.7314 132.738C48.0967 132.106 47.7396 131.248 47.7385 130.354L47.7385 51.8491C47.7395 51.1053 47.9866 50.3825 48.4416 49.7928C48.8966 49.2031 49.5341 48.7794 50.2553 48.5875C50.5388 48.5122 50.8309 48.4744 51.1243 48.475H104.375L113.874 56.9261V130.354ZM49.1245 48.5875C48.5635 48.9287 48.0999 49.4079 47.7781 49.9791C47.4564 50.5502 47.2873 51.1942 47.2871 51.8491V52.4115H47.7385V51.8491C47.7395 51.1053 47.9866 50.3825 48.4416 49.7928C48.8966 49.2031 49.5341 48.7794 50.2553 48.5875H49.1245Z" fill="#3F3D56"/>
<path d="M114.1 57.0228H108.005C106.988 57.0216 106.012 56.6184 105.293 55.9015C104.574 55.1846 104.169 54.2126 104.168 53.1988V48.2501C104.168 48.1904 104.192 48.1332 104.234 48.091C104.276 48.0488 104.334 48.0251 104.394 48.0251C104.454 48.0251 104.511 48.0488 104.553 48.091C104.596 48.1332 104.619 48.1904 104.619 48.2501V53.1988C104.62 54.0934 104.977 54.951 105.612 55.5835C106.247 56.2161 107.108 56.5719 108.005 56.5729H114.1C114.159 56.5729 114.217 56.5966 114.259 56.6388C114.301 56.681 114.325 56.7382 114.325 56.7978C114.325 56.8575 114.301 56.9147 114.259 56.9569C114.217 56.9991 114.159 57.0228 114.1 57.0228Z" fill="#3F3D56"/>
<path d="M106.547 71.9811H55.0841C54.6051 71.9811 54.1458 71.7915 53.8072 71.4541C53.4686 71.1166 53.2783 70.6589 53.2783 70.1816C53.2783 69.7043 53.4686 69.2466 53.8072 68.9092C54.1458 68.5717 54.6051 68.3821 55.0841 68.3821H106.547C107.026 68.3821 107.486 68.5717 107.824 68.9092C108.163 69.2466 108.353 69.7043 108.353 70.1816C108.353 70.6589 108.163 71.1166 107.824 71.4541C107.486 71.7915 107.026 71.9811 106.547 71.9811Z" fill="#CCCCCC"/>
<path d="M80.59 64.3332H55.0841C54.6051 64.3332 54.1458 64.1436 53.8072 63.8061C53.4686 63.4686 53.2783 63.0109 53.2783 62.5337C53.2783 62.0564 53.4686 61.5987 53.8072 61.2612C54.1458 60.9237 54.6051 60.7341 55.0841 60.7341H80.59C81.0689 60.7341 81.5282 60.9237 81.8669 61.2612C82.2055 61.5987 82.3958 62.0564 82.3958 62.5337C82.3958 63.0109 82.2055 63.4686 81.8669 63.8061C81.5282 64.1436 81.0689 64.3332 80.59 64.3332Z" fill="#CCCCCC"/>
<path d="M106.547 87.0522H55.0841C54.6051 87.0522 54.1458 86.8626 53.8072 86.5251C53.4686 86.1876 53.2783 85.7299 53.2783 85.2527C53.2783 84.7754 53.4686 84.3177 53.8072 83.9802C54.1458 83.6427 54.6051 83.4531 55.0841 83.4531H106.547C107.026 83.4531 107.486 83.6427 107.824 83.9802C108.163 84.3177 108.353 84.7754 108.353 85.2527C108.353 85.7299 108.163 86.1876 107.824 86.5251C107.486 86.8626 107.026 87.0522 106.547 87.0522Z" fill="#CCCCCC"/>
<path d="M80.59 79.4042H55.0841C54.6051 79.4042 54.1458 79.2146 53.8072 78.8772C53.4686 78.5397 53.2783 78.082 53.2783 77.6047C53.2783 77.1274 53.4686 76.6697 53.8072 76.3323C54.1458 75.9948 54.6051 75.8052 55.0841 75.8052H80.59C81.0689 75.8052 81.5282 75.9948 81.8669 76.3323C82.2055 76.6697 82.3958 77.1274 82.3958 77.6047C82.3958 78.082 82.2055 78.5397 81.8669 78.8772C81.5282 79.2146 81.0689 79.4042 80.59 79.4042Z" fill="#CCCCCC"/>
<path d="M104.723 121.581H56.8708C55.8834 121.58 54.9368 121.188 54.2385 120.492C53.5403 119.797 53.1476 118.853 53.1465 117.869V98.9742C53.1476 97.9902 53.5403 97.0468 54.2385 96.351C54.9368 95.6552 55.8834 95.2638 56.8708 95.2627H104.723C105.71 95.2638 106.657 95.6552 107.355 96.351C108.053 97.0468 108.446 97.9902 108.447 98.9742V117.869C108.446 118.853 108.053 119.797 107.355 120.492C106.657 121.188 105.71 121.58 104.723 121.581Z" fill="#3C7240"/>
</svg>
