<svg width="109" height="134" viewBox="0 0 109 134" fill="none" xmlns="http://www.w3.org/2000/svg">
<path d="M21.7612 3.80692H11.4826C10.9777 3.80692 10.4936 3.60638 10.1366 3.24941C9.77965 2.89244 9.5791 2.40829 9.5791 1.90346C9.5791 1.39863 9.77965 0.914477 10.1366 0.557509C10.4936 0.200541 10.9777 0 11.4826 0H21.7612C22.2661 0 22.7502 0.200541 23.1072 0.557509C23.4642 0.914477 23.6647 1.39863 23.6647 1.90346C23.6647 2.40829 23.4642 2.89244 23.1072 3.24941C22.7502 3.60638 22.2661 3.80692 21.7612 3.80692Z" fill="#E6E6E6"/>
<path d="M89.1438 3.61666C90.0899 3.61666 90.8569 2.84967 90.8569 1.90354C90.8569 0.957417 90.0899 0.19043 89.1438 0.19043C88.1977 0.19043 87.4307 0.957417 87.4307 1.90354C87.4307 2.84967 88.1977 3.61666 89.1438 3.61666Z" fill="#E6E6E6"/>
<path d="M94.4729 3.61666C95.419 3.61666 96.186 2.84967 96.186 1.90354C96.186 0.957417 95.419 0.19043 94.4729 0.19043C93.5268 0.19043 92.7598 0.957417 92.7598 1.90354C92.7598 2.84967 93.5268 3.61666 94.4729 3.61666Z" fill="#E6E6E6"/>
<path d="M99.803 3.61666C100.749 3.61666 101.516 2.84967 101.516 1.90354C101.516 0.957417 100.749 0.19043 99.803 0.19043C98.8568 0.19043 98.0898 0.957417 98.0898 1.90354C98.0898 2.84967 98.8568 3.61666 99.803 3.61666Z" fill="#E6E6E6"/>
<path d="M32.61 54.0547H14.3368C13.0751 54.0533 11.8656 53.5514 10.9735 52.6593C10.0814 51.7672 9.57954 50.5577 9.57812 49.296V31.0228C9.57954 29.7612 10.0814 28.5516 10.9735 27.6595C11.8656 26.7674 13.0751 26.2656 14.3368 26.2642H32.61C33.8716 26.2656 35.0812 26.7674 35.9733 27.6595C36.8654 28.5516 37.3672 29.7612 37.3686 31.0228V49.296C37.3672 50.5577 36.8654 51.7672 35.9733 52.6593C35.0812 53.5514 33.8716 54.0533 32.61 54.0547Z" fill="#F2F2F2"/>
<path d="M96.9479 54.0547H78.6747C77.413 54.0533 76.2035 53.5514 75.3114 52.6593C74.4192 51.7672 73.9174 50.5577 73.916 49.296V31.0228C73.9174 29.7612 74.4192 28.5516 75.3114 27.6595C76.2035 26.7674 77.413 26.2656 78.6747 26.2642H96.9479C98.2095 26.2656 99.4191 26.7674 100.311 27.6595C101.203 28.5516 101.705 29.7612 101.707 31.0228V49.296C101.705 50.5577 101.203 51.7672 100.311 52.6593C99.4191 53.5514 98.2095 54.0533 96.9479 54.0547Z" fill="#F2F2F2"/>
<path d="M64.5885 54.0547H46.3153C45.0537 54.0533 43.8441 53.5514 42.952 52.6593C42.0599 51.7672 41.5581 50.5577 41.5566 49.296V31.0228C41.5581 29.7612 42.0599 28.5516 42.952 27.6595C43.8441 26.7674 45.0537 26.2656 46.3153 26.2642H64.5885C65.8501 26.2656 67.0597 26.7674 67.9518 27.6595C68.8439 28.5516 69.3457 29.7612 69.3471 31.0228V49.296C69.3457 50.5577 68.8439 51.7672 67.9518 52.6593C67.0597 53.5514 65.8501 54.0533 64.5885 54.0547Z" fill="#F2F2F2"/>
<path d="M14.3369 66.6174C13.1762 66.6187 12.0634 67.0804 11.2427 67.9011C10.4219 68.7219 9.96027 69.8347 9.95898 70.9954V89.2686C9.9603 90.4293 10.422 91.5421 11.2427 92.3628C12.0635 93.1836 13.1762 93.6452 14.3369 93.6466H32.6102C33.7709 93.6452 34.8836 93.1836 35.7044 92.3628C36.5251 91.5421 36.9868 90.4293 36.9881 89.2686V70.9954C36.9868 69.8347 36.5252 68.7219 35.7044 67.9011C34.8837 67.0804 33.7709 66.6187 32.6102 66.6174H14.3369Z" fill="#F2F2F2"/>
<path d="M96.9479 94.0273H78.6747C77.413 94.0259 76.2035 93.5241 75.3114 92.632C74.4192 91.7399 73.9174 90.5303 73.916 89.2687V70.9955C73.9174 69.7338 74.4192 68.5243 75.3114 67.6322C76.2035 66.74 77.413 66.2382 78.6747 66.2368H96.9479C98.2095 66.2382 99.4191 66.74 100.311 67.6322C101.203 68.5243 101.705 69.7338 101.707 70.9955V89.2687C101.705 90.5303 101.203 91.7399 100.311 92.632C99.4191 93.5241 98.2095 94.0259 96.9479 94.0273Z" fill="#F2F2F2"/>
<path d="M64.5885 94.0273H46.3153C45.0537 94.0259 43.8441 93.5241 42.952 92.632C42.0599 91.7399 41.5581 90.5303 41.5566 89.2687V70.9955C41.5581 69.7338 42.0599 68.5243 42.952 67.6322C43.8441 66.74 45.0537 66.2382 46.3153 66.2368H64.5885C65.8501 66.2382 67.0597 66.74 67.9518 67.6322C68.8439 68.5243 69.3457 69.7338 69.3471 70.9955V89.2687C69.3457 90.5303 68.8439 91.7399 67.9518 92.632C67.0597 93.5241 65.8501 94.0259 64.5885 94.0273Z" fill="#F2F2F2"/>
<path d="M32.61 134H14.3368C13.0751 133.999 11.8656 133.497 10.9735 132.605C10.0814 131.713 9.57954 130.503 9.57812 129.241V110.968C9.57954 109.706 10.0814 108.497 10.9735 107.605C11.8656 106.713 13.0751 106.211 14.3368 106.209H32.61C33.8716 106.211 35.0812 106.713 35.9733 107.605C36.8654 108.497 37.3672 109.706 37.3686 110.968V129.241C37.3672 130.503 36.8654 131.713 35.9733 132.605C35.0812 133.497 33.8716 133.999 32.61 134Z" fill="#F2F2F2"/>
<path d="M96.9479 134H78.6747C77.413 133.999 76.2035 133.497 75.3114 132.605C74.4192 131.713 73.9174 130.503 73.916 129.241V110.968C73.9174 109.706 74.4192 108.497 75.3114 107.605C76.2035 106.713 77.413 106.211 78.6747 106.209H96.9479C98.2095 106.211 99.4191 106.713 100.311 107.605C101.203 108.497 101.705 109.706 101.707 110.968V129.241C101.705 130.503 101.203 131.713 100.311 132.605C99.4191 133.497 98.2095 133.999 96.9479 134Z" fill="#F2F2F2"/>
<path d="M64.5885 134H46.3153C45.0537 133.999 43.8441 133.497 42.952 132.605C42.0599 131.713 41.5581 130.503 41.5566 129.241V110.968C41.5581 109.706 42.0599 108.497 42.952 107.605C43.8441 106.713 45.0537 106.211 46.3153 106.209H64.5885C65.8501 106.211 67.0597 106.713 67.9518 107.605C68.8439 108.497 69.3457 109.706 69.3471 110.968V129.241C69.3457 130.503 68.8439 131.713 67.9518 132.605C67.0597 133.497 65.8501 133.999 64.5885 134Z" fill="#F2F2F2"/>
<path d="M101.464 123.912H7.53522C5.70497 123.91 3.95027 123.182 2.65609 121.887C1.3619 120.593 0.633904 118.839 0.631836 117.008V79.8023C0.633904 77.9721 1.3619 76.2174 2.65609 74.9232C3.95027 73.629 5.70496 72.901 7.53522 72.8989H101.464C103.295 72.901 105.049 73.629 106.343 74.9232C107.638 76.2174 108.366 77.9721 108.368 79.8023V117.008C108.366 118.839 107.638 120.593 106.343 121.887C105.049 123.182 103.295 123.91 101.464 123.912Z" fill="white"/>
<path d="M101.464 123.912H7.53522C5.70497 123.91 3.95027 123.182 2.65609 121.887C1.3619 120.593 0.633904 118.839 0.631836 117.008V79.8023C0.633904 77.9721 1.3619 76.2174 2.65609 74.9232C3.95027 73.629 5.70496 72.901 7.53522 72.8989H101.464C103.295 72.901 105.049 73.629 106.343 74.9232C107.638 76.2174 108.366 77.9721 108.368 79.8023V117.008C108.366 118.839 107.638 120.593 106.343 121.887C105.049 123.182 103.295 123.91 101.464 123.912ZM25.6886 73.6603C19.245 73.6603 13.0654 76.22 8.50915 80.7762C3.95289 85.3325 1.39322 91.5121 1.39322 97.9556V117.008C1.39322 117.815 1.55209 118.614 1.86075 119.359C2.16942 120.104 2.62183 120.781 3.19217 121.351C3.7625 121.922 4.4396 122.374 5.18478 122.683C5.92996 122.991 6.72864 123.15 7.53522 123.15H101.464C102.271 123.15 103.07 122.991 103.815 122.683C104.56 122.374 105.237 121.922 105.807 121.351C106.378 120.781 106.83 120.104 107.139 119.359C107.447 118.614 107.606 117.815 107.606 117.008V79.8023C107.606 78.1734 106.959 76.6111 105.807 75.4593C104.655 74.3074 103.093 73.6603 101.464 73.6603H25.6886Z" fill="#E6E6E6"/>
<path d="M48.1149 90.9077L13.8946 90.5082C13.8454 90.508 13.7968 90.4982 13.7514 90.4792C13.706 90.4602 13.6649 90.4325 13.6302 90.3976C13.5956 90.3627 13.5681 90.3213 13.5495 90.2758C13.5308 90.2303 13.5213 90.1816 13.5215 90.1324C13.5217 90.0832 13.5315 90.0346 13.5505 89.9892C13.5695 89.9438 13.5972 89.9027 13.6321 89.868C13.667 89.8334 13.7084 89.8059 13.7539 89.7873C13.7994 89.7686 13.8481 89.7591 13.8973 89.7593L48.1176 90.1588C48.2169 90.1591 48.312 90.1989 48.382 90.2694C48.452 90.3399 48.4911 90.4353 48.4907 90.5346C48.4904 90.6339 48.4506 90.729 48.3801 90.799C48.3096 90.869 48.2142 90.9081 48.1149 90.9077Z" fill="#CCCCCC"/>
<path d="M65.6267 96.9988L13.8946 96.5993C13.8454 96.5991 13.7968 96.5892 13.7514 96.5703C13.706 96.5513 13.6649 96.5235 13.6302 96.4886C13.5956 96.4538 13.5681 96.4124 13.5495 96.3669C13.5308 96.3214 13.5213 96.2726 13.5215 96.2235C13.5217 96.1743 13.5315 96.1256 13.5505 96.0803C13.5695 96.0349 13.5972 95.9937 13.6321 95.9591C13.667 95.9244 13.7084 95.897 13.7539 95.8783C13.7994 95.8597 13.8481 95.8502 13.8973 95.8503L65.6294 96.2499C65.7287 96.2502 65.8238 96.29 65.8938 96.3605C65.9638 96.4309 66.0029 96.5263 66.0025 96.6256C66.0022 96.725 65.9624 96.8201 65.8919 96.89C65.8214 96.96 65.726 96.9991 65.6267 96.9988Z" fill="#CCCCCC"/>
<path d="M86.5316 101.736C90.9469 101.736 94.5262 98.1571 94.5262 93.7418C94.5262 89.3266 90.9469 85.7473 86.5316 85.7473C82.1164 85.7473 78.5371 89.3266 78.5371 93.7418C78.5371 98.1571 82.1164 101.736 86.5316 101.736Z" fill="#3C7240"/>
<path d="M89.3511 95.6815L86.5313 88.998L83.7119 95.6815L86.1506 94.6456V98.6908H86.912V94.6456L89.3511 95.6815Z" fill="white"/>
<path d="M94.5259 109.16H14.5806C14.3282 109.16 14.0861 109.26 13.9077 109.439C13.7292 109.617 13.6289 109.859 13.6289 110.112C13.6289 110.364 13.7292 110.606 13.9077 110.785C14.0861 110.963 14.3282 111.063 14.5806 111.063H94.5259C94.7783 111.063 95.0204 110.963 95.1989 110.785C95.3774 110.606 95.4777 110.364 95.4777 110.112C95.4777 109.859 95.3774 109.617 95.1989 109.439C95.0204 109.26 94.7783 109.16 94.5259 109.16Z" fill="#F2F2F2"/>
<path d="M60.2637 109.16V111.063H14.5806C14.3282 111.063 14.0861 110.963 13.9077 110.785C13.7292 110.606 13.6289 110.364 13.6289 110.112C13.6289 109.859 13.7292 109.617 13.9077 109.439C14.0861 109.26 14.3282 109.16 14.5806 109.16H60.2637Z" fill="#3C7240"/>
</svg>
