<svg width="168" height="134" viewBox="0 0 168 134" fill="none" xmlns="http://www.w3.org/2000/svg">
<path d="M167.918 0H44.8477V29.9064H167.918V0Z" fill="#E6E6E6"/>
<path d="M48.0771 26.6772H164.689V3.22925H48.0771V26.6772Z" fill="white"/>
<path d="M70.2876 23.8864C75.2212 23.8864 79.2207 19.8869 79.2207 14.9533C79.2207 10.0197 75.2212 6.02026 70.2876 6.02026C65.354 6.02026 61.3545 10.0197 61.3545 14.9533C61.3545 19.8869 65.354 23.8864 70.2876 23.8864Z" fill="#3C7240"/>
<path d="M151.411 11.4578H91.6494V13.3997H151.411V11.4578Z" fill="#3C7240"/>
<path d="M151.411 16.5068H91.6494V18.4488H151.411V16.5068Z" fill="#3C7240"/>
<path d="M0 45.4551L104.132 53.0506V80.3917L0 78.458V45.4551Z" fill="#E6E6E6"/>
<path d="M3.28027 74.9749L101.859 77.3859V55.85L3.28027 49.2385V74.9749Z" fill="white"/>
<path d="M24.916 53.643C26.0541 53.7164 27.1624 54.0373 28.1637 54.5833C29.1679 55.1322 30.0588 55.8669 30.789 56.7482C31.5478 57.66 32.1421 58.6969 32.5454 59.8124C32.9709 60.9861 33.1881 62.2251 33.187 63.4736C33.1915 64.7031 32.9741 65.9234 32.5454 67.0758C32.1478 68.146 31.5519 69.1316 30.789 69.981C30.0564 70.7973 29.1625 71.4527 28.1637 71.9058C27.1439 72.3637 26.0333 72.5836 24.916 72.5487C23.7725 72.5124 22.651 72.2243 21.6317 71.7049C20.5991 71.1769 19.6789 70.4534 18.922 69.5747C18.1279 68.6562 17.5045 67.603 17.0812 66.465C16.632 65.263 16.4024 63.9901 16.4034 62.707C16.3984 61.4429 16.6282 60.1889 17.0812 59.0088C17.499 57.9189 18.1243 56.9204 18.9224 56.0687C19.6826 55.2571 20.6061 54.6157 21.6321 54.1868C22.6709 53.7572 23.7942 53.5712 24.916 53.643Z" fill="#E6E6E6"/>
<path d="M44.3105 60.4082L92.2888 62.9085V64.7257L44.3105 62.3946V60.4082Z" fill="#E6E6E6"/>
<path d="M44.3105 65.5735L92.2888 67.6331V69.4503L44.3105 67.5599V65.5735Z" fill="#E6E6E6"/>
<path d="M0 100.997L104.132 99.0635V126.405L0 134V100.997Z" fill="#E6E6E6"/>
<path d="M3.28027 130.216L101.859 123.605V102.071L3.28027 104.482V130.216Z" fill="white"/>
<path d="M16.4104 116.312C16.461 115.03 16.7418 113.767 17.2395 112.585C17.7069 111.47 18.3713 110.449 19.2009 109.57C19.9905 108.73 20.9372 108.054 21.9874 107.579C23.026 107.111 24.1556 106.88 25.2945 106.903C26.4121 106.926 27.5099 107.202 28.5051 107.711C29.4836 108.216 30.348 108.917 31.0447 109.769C31.7713 110.658 32.3259 111.673 32.6801 112.765C33.0616 113.938 33.2299 115.17 33.1771 116.402C33.1292 117.649 32.8635 118.878 32.3922 120.034C31.9463 121.13 31.3116 122.139 30.5169 123.015C29.7537 123.86 28.8352 124.551 27.8113 125.049C26.7888 125.545 25.6696 125.81 24.5332 125.825C23.408 125.838 22.2946 125.594 21.2784 125.11C20.2714 124.627 19.377 123.938 18.6531 123.087C17.8918 122.194 17.309 121.162 16.9364 120.049C16.5328 118.846 16.3545 117.579 16.4104 116.312Z" fill="#E6E6E6"/>
<path d="M44.3105 111.895L92.2888 110.005V111.822L44.3105 113.882V111.895Z" fill="#E6E6E6"/>
<path d="M44.3105 117.06L92.2888 114.729V116.547L44.3105 119.047V117.06Z" fill="#E6E6E6"/>
</svg>
