<svg width="92" height="103" viewBox="0 0 92 103" fill="none" xmlns="http://www.w3.org/2000/svg">
<rect y="0.75" width="1.5" height="1.5" fill="#21383E"/>
<rect x="10" y="0.75" width="1.5" height="1.5" fill="#21383E"/>
<rect x="19.999" y="0.75" width="1.5" height="1.5" fill="#21383E"/>
<rect x="30" y="0.75" width="1.5" height="1.5" fill="#21383E"/>
<rect x="40" y="0.75" width="1.5" height="1.5" fill="#21383E"/>
<rect x="50" y="0.75" width="1.5" height="1.5" fill="#21383E"/>
<rect x="60" y="0.75" width="1.5" height="1.5" fill="#21383E"/>
<rect x="70.001" y="0.75" width="1.5" height="1.5" fill="#21383E"/>
<rect x="80" y="0.75" width="1.5" height="1.5" fill="#21383E"/>
<rect x="90" y="0.75" width="1.5" height="1.5" fill="#21383E"/>
<rect y="10.75" width="1.5" height="1.5" fill="#21383E"/>
<rect x="10" y="10.75" width="1.5" height="1.5" fill="#21383E"/>
<rect x="19.999" y="10.75" width="1.5" height="1.5" fill="#21383E"/>
<rect x="30" y="10.75" width="1.5" height="1.5" fill="#21383E"/>
<rect x="40" y="10.75" width="1.5" height="1.5" fill="#21383E"/>
<rect x="50" y="10.75" width="1.5" height="1.5" fill="#21383E"/>
<rect x="60" y="10.75" width="1.5" height="1.5" fill="#21383E"/>
<rect x="70.001" y="10.75" width="1.5" height="1.5" fill="#21383E"/>
<rect x="80" y="10.75" width="1.5" height="1.5" fill="#21383E"/>
<rect x="90" y="10.75" width="1.5" height="1.5" fill="#21383E"/>
<rect y="20.75" width="1.5" height="1.5" fill="#21383E"/>
<rect x="10" y="20.75" width="1.5" height="1.5" fill="#21383E"/>
<rect x="19.999" y="20.75" width="1.5" height="1.5" fill="#21383E"/>
<rect x="30" y="20.75" width="1.5" height="1.5" fill="#21383E"/>
<rect x="40" y="20.75" width="1.5" height="1.5" fill="#21383E"/>
<rect x="50" y="20.75" width="1.5" height="1.5" fill="#21383E"/>
<rect x="60" y="20.75" width="1.5" height="1.5" fill="#21383E"/>
<rect x="70.001" y="20.75" width="1.5" height="1.5" fill="#21383E"/>
<rect x="80" y="20.75" width="1.5" height="1.5" fill="#21383E"/>
<rect x="90" y="20.75" width="1.5" height="1.5" fill="#21383E"/>
<rect y="30.75" width="1.5" height="1.5" fill="#21383E"/>
<rect x="10" y="30.75" width="1.5" height="1.5" fill="#21383E"/>
<rect x="19.999" y="30.75" width="1.5" height="1.5" fill="#21383E"/>
<rect x="30" y="30.75" width="1.5" height="1.5" fill="#21383E"/>
<rect x="40" y="30.75" width="1.5" height="1.5" fill="#21383E"/>
<rect x="50" y="30.75" width="1.5" height="1.5" fill="#21383E"/>
<rect x="60" y="30.75" width="1.5" height="1.5" fill="#21383E"/>
<rect x="70.001" y="30.75" width="1.5" height="1.5" fill="#21383E"/>
<rect x="80" y="30.75" width="1.5" height="1.5" fill="#21383E"/>
<rect x="90" y="30.75" width="1.5" height="1.5" fill="#21383E"/>
<rect y="40.75" width="1.5" height="1.5" fill="#21383E"/>
<rect x="10" y="40.75" width="1.5" height="1.5" fill="#21383E"/>
<rect x="19.999" y="40.75" width="1.5" height="1.5" fill="#21383E"/>
<rect x="30" y="40.75" width="1.5" height="1.5" fill="#21383E"/>
<rect x="40" y="40.75" width="1.5" height="1.5" fill="#21383E"/>
<rect x="50" y="40.75" width="1.5" height="1.5" fill="#21383E"/>
<rect x="60" y="40.75" width="1.5" height="1.5" fill="#21383E"/>
<rect x="70.001" y="40.75" width="1.5" height="1.5" fill="#21383E"/>
<rect x="80" y="40.75" width="1.5" height="1.5" fill="#21383E"/>
<rect x="90" y="40.75" width="1.5" height="1.5" fill="#21383E"/>
<rect y="50.75" width="1.5" height="1.5" fill="#21383E"/>
<rect x="10" y="50.75" width="1.5" height="1.5" fill="#21383E"/>
<rect x="19.999" y="50.75" width="1.5" height="1.5" fill="#21383E"/>
<rect x="30" y="50.75" width="1.5" height="1.5" fill="#21383E"/>
<rect x="40" y="50.75" width="1.5" height="1.5" fill="#21383E"/>
<rect x="50" y="50.75" width="1.5" height="1.5" fill="#21383E"/>
<rect x="60" y="50.75" width="1.5" height="1.5" fill="#21383E"/>
<rect x="70.001" y="50.75" width="1.5" height="1.5" fill="#21383E"/>
<rect x="80" y="50.75" width="1.5" height="1.5" fill="#21383E"/>
<rect x="90" y="50.75" width="1.5" height="1.5" fill="#21383E"/>
<rect y="60.75" width="1.5" height="1.5" fill="#21383E"/>
<rect x="10" y="60.75" width="1.5" height="1.5" fill="#21383E"/>
<rect x="19.999" y="60.75" width="1.5" height="1.5" fill="#21383E"/>
<rect x="30" y="60.75" width="1.5" height="1.5" fill="#21383E"/>
<rect x="40" y="60.75" width="1.5" height="1.5" fill="#21383E"/>
<rect x="50" y="60.75" width="1.5" height="1.5" fill="#21383E"/>
<rect x="60" y="60.75" width="1.5" height="1.5" fill="#21383E"/>
<rect x="70.001" y="60.75" width="1.5" height="1.5" fill="#21383E"/>
<rect x="80" y="60.75" width="1.5" height="1.5" fill="#21383E"/>
<rect x="90" y="60.75" width="1.5" height="1.5" fill="#21383E"/>
<rect y="70.75" width="1.5" height="1.5" fill="#21383E"/>
<rect x="10" y="70.75" width="1.5" height="1.5" fill="#21383E"/>
<rect x="19.999" y="70.75" width="1.5" height="1.5" fill="#21383E"/>
<rect x="30" y="70.75" width="1.5" height="1.5" fill="#21383E"/>
<rect x="40" y="70.75" width="1.5" height="1.5" fill="#21383E"/>
<rect x="50" y="70.75" width="1.5" height="1.5" fill="#21383E"/>
<rect x="60" y="70.75" width="1.5" height="1.5" fill="#21383E"/>
<rect x="70.001" y="70.75" width="1.5" height="1.5" fill="#21383E"/>
<rect x="80" y="70.75" width="1.5" height="1.5" fill="#21383E"/>
<rect x="90" y="70.75" width="1.5" height="1.5" fill="#21383E"/>
<rect y="80.75" width="1.5" height="1.5" fill="#21383E"/>
<rect x="10" y="80.75" width="1.5" height="1.5" fill="#21383E"/>
<rect x="19.999" y="80.75" width="1.5" height="1.5" fill="#21383E"/>
<rect x="30" y="80.75" width="1.5" height="1.5" fill="#21383E"/>
<rect x="40" y="80.75" width="1.5" height="1.5" fill="#21383E"/>
<rect x="50" y="80.75" width="1.5" height="1.5" fill="#21383E"/>
<rect x="60" y="80.75" width="1.5" height="1.5" fill="#21383E"/>
<rect x="70.001" y="80.75" width="1.5" height="1.5" fill="#21383E"/>
<rect x="80" y="80.75" width="1.5" height="1.5" fill="#21383E"/>
<rect x="90" y="80.75" width="1.5" height="1.5" fill="#21383E"/>
<rect y="90.75" width="1.5" height="1.5" fill="#21383E"/>
<rect x="10" y="90.75" width="1.5" height="1.5" fill="#21383E"/>
<rect x="19.999" y="90.75" width="1.5" height="1.5" fill="#21383E"/>
<rect x="30" y="90.75" width="1.5" height="1.5" fill="#21383E"/>
<rect x="40" y="90.75" width="1.5" height="1.5" fill="#21383E"/>
<rect x="50" y="90.75" width="1.5" height="1.5" fill="#21383E"/>
<rect x="60" y="90.75" width="1.5" height="1.5" fill="#21383E"/>
<rect x="70.001" y="90.75" width="1.5" height="1.5" fill="#21383E"/>
<rect x="80" y="90.75" width="1.5" height="1.5" fill="#21383E"/>
<rect x="90" y="90.75" width="1.5" height="1.5" fill="#21383E"/>
<rect y="100.75" width="1.5" height="1.5" fill="#21383E"/>
<rect x="10" y="100.75" width="1.5" height="1.5" fill="#21383E"/>
<rect x="19.999" y="100.75" width="1.5" height="1.5" fill="#21383E"/>
<rect x="30" y="100.75" width="1.5" height="1.5" fill="#21383E"/>
<rect x="40" y="100.75" width="1.5" height="1.5" fill="#21383E"/>
<rect x="50" y="100.75" width="1.5" height="1.5" fill="#21383E"/>
<rect x="60" y="100.75" width="1.5" height="1.5" fill="#21383E"/>
<rect x="70.001" y="100.75" width="1.5" height="1.5" fill="#21383E"/>
<rect x="80" y="100.75" width="1.5" height="1.5" fill="#21383E"/>
<rect x="90" y="100.75" width="1.5" height="1.5" fill="#21383E"/>
</svg>
