<svg width="40" height="40" viewBox="0 0 40 40" fill="none" xmlns="http://www.w3.org/2000/svg">
<path d="M2.37305 24.4434L6.37305 37.1384C6.43835 37.3473 6.54444 37.5412 6.6852 37.7088C6.82595 37.8765 6.99857 38.0145 7.19305 38.115C9.56119 39.3452 12.1911 39.9861 14.8597 39.9834C15.7931 39.9741 16.7241 39.8872 17.643 39.7234L2.37305 24.4434Z" fill="#D1D5DB"/>
<path d="M39.5117 22.155L17.845 0.488333C17.5325 0.175751 17.1087 9.43957e-05 16.6667 0C12.2479 0.00485266 8.01147 1.76236 4.88691 4.88691C1.76236 8.01147 0.00485266 12.2479 0 16.6667C9.43957e-05 17.1087 0.175751 17.5325 0.488333 17.845L22.155 39.5117C22.4675 39.8242 22.8913 39.9999 23.3333 40C27.7521 39.9951 31.9885 38.2376 35.1131 35.1131C38.2376 31.9885 39.9951 27.7521 40 23.3333C39.9999 22.8913 39.8242 22.4675 39.5117 22.155ZM11.6667 15C11.0074 15 10.3629 14.8045 9.81477 14.4382C9.2666 14.072 8.83936 13.5514 8.58707 12.9423C8.33478 12.3332 8.26876 11.663 8.39738 11.0164C8.526 10.3698 8.84347 9.77582 9.30964 9.30964C9.77582 8.84347 10.3698 8.526 11.0164 8.39738C11.663 8.26876 12.3332 8.33478 12.9423 8.58707C13.5514 8.83936 14.072 9.2666 14.4382 9.81477C14.8045 10.3629 15 11.0074 15 11.6667C15 12.5507 14.6488 13.3986 14.0237 14.0237C13.3986 14.6488 12.5507 15 11.6667 15ZM26.3333 26.3333L24.935 30.8333L22.2133 26.985L17.5 27.045L20.32 23.2667L18.8067 18.805L23.27 20.3183L27.0483 17.5L26.9883 22.2133L30.8333 24.935L26.3333 26.3333Z" fill="#3C7240"/>
</svg>
