<svg width="17" height="16" viewBox="0 0 17 16" fill="none" xmlns="http://www.w3.org/2000/svg">
<g clip-path="url(#clip0_93_1483)">
<path d="M8.5 0.25C12.75 0.25 16.25 3.75 16.25 8C16.25 12.2812 12.75 15.75 8.5 15.75C4.21875 15.75 0.75 12.2812 0.75 8C0.75 3.75 4.21875 0.25 8.5 0.25ZM8.5 1.75C5.03125 1.75 2.25 4.5625 2.25 8C2.25 11.4688 5.03125 14.25 8.5 14.25C11.9375 14.25 14.75 11.4688 14.75 8C14.75 4.5625 11.9375 1.75 8.5 1.75ZM12.875 5.84375C13 5.96875 13 6.21875 12.875 6.375L7.46875 11.7188C7.3125 11.875 7.09375 11.875 6.9375 11.7188L4.09375 8.84375C3.96875 8.71875 3.96875 8.46875 4.09375 8.3125L4.8125 7.625C4.96875 7.46875 5.1875 7.46875 5.34375 7.625L7.21875 9.5L11.625 5.125C11.7812 4.96875 12.0312 4.96875 12.1562 5.125L12.875 5.84375Z" fill="#008000"/>
</g>
<defs>
<clipPath id="clip0_93_1483">
<rect width="17" height="16" fill="white"/>
</clipPath>
</defs>
</svg>
