<svg width="40" height="42" viewBox="0 0 40 42" fill="none" xmlns="http://www.w3.org/2000/svg">
<path d="M30.6309 33.7152L33.2836 36.2006C36.3527 32.9243 36.6581 32.477 38.6109 28.4515L35.34 26.8643C33.5527 30.5461 33.4309 30.7243 30.6309 33.7152Z" fill="#D1D5DB"/>
<path d="M18.5928 37.5171L18.6819 41.1517C23.4364 41.0353 24.1946 40.8898 28.6055 39.2826L27.36 35.8662C23.34 37.3298 22.9491 37.4098 18.5928 37.5171Z" fill="#D1D5DB"/>
<path d="M7.05326 31.252L4.45508 33.7956C7.79508 37.2047 8.45326 37.692 12.7387 39.832L14.366 36.5792C10.4751 34.6374 10.106 34.372 7.05326 31.252Z" fill="#D1D5DB"/>
<path d="M3.63539 19.2954H-0.000976562C-0.000976562 23.8827 0.0972052 24.5009 1.47175 28.8409L4.93721 27.7427C3.67902 23.77 3.63539 23.479 3.63539 19.2954Z" fill="#D1D5DB"/>
<path d="M10.1272 8.08269C12.9581 5.93178 16.3836 4.74996 19.9999 4.74996C29.0236 4.74996 36.3636 12.09 36.3636 21.1136C36.3636 21.49 36.3327 21.8572 36.3072 22.2263L39.9145 22.79C39.9617 22.2354 39.9999 21.6791 39.9999 21.1136C39.9999 10.0863 31.0272 1.1136 19.9999 1.1136C15.3727 1.1136 10.9872 2.68087 7.44175 5.5536L2.42357 0.848145L1.24902 14.6372L15.0745 12.7063L10.1272 8.08269Z" fill="#3C7240"/>
</svg>
